<svg width="148" height="51" viewBox="0 0 148 51" fill="none" xmlns="http://www.w3.org/2000/svg">
<rect x="8" width="140" height="51" rx="16" fill="white"/>
<path d="M54.2969 19.5625C54.2969 20.2188 54.2682 20.8646 54.2109 21.5C54.1536 22.1354 54.0182 22.8646 53.8047 23.6875H57.6953C57.862 23.0365 57.9766 22.4401 58.0391 21.8984C58.1016 21.3568 58.138 20.8229 58.1484 20.2969H55.2188V18.9062H59.8438V19.6562C59.8438 20.349 59.8203 21.0026 59.7734 21.6172C59.7318 22.2266 59.6224 22.9167 59.4453 23.6875H61.3438V25.1094H55.7344V27.125H59.7344V32.2031H50.0469V27.125H54.0156V25.1094H48.4688V23.6875H52.0547C52.3724 22.5417 52.5521 21.4115 52.5938 20.2969H49.6562V18.9062H54.2969V19.5625ZM51.75 30.8281H58V28.4844H51.75V30.8281ZM72.9688 20.4219H68.3594V23.5625C69.6823 23.5521 70.776 23.5156 71.6406 23.4531C72.5052 23.3854 73.3646 23.2656 74.2188 23.0938L74.4062 24.4375C73.526 24.6406 72.6172 24.7734 71.6797 24.8359C70.7474 24.8932 69.4479 24.9219 67.7812 24.9219H66.6406V19.0312H72.9688V20.4219ZM77.2344 21.0469H79.2031V22.4688H77.2344V25.3281H75.5V18.2656H77.2344V21.0469ZM77.2344 29.6875H69.7344V30.8125H77.6719V32.2188H68.0156V28.375H75.5V27.3281H68V25.9375H77.2344V29.6875ZM85.0938 20.2969C85.0885 20.9479 85.2109 21.5625 85.4609 22.1406C85.7109 22.7188 86.0859 23.2292 86.5859 23.6719C87.0911 24.1094 87.7031 24.4427 88.4219 24.6719L87.4844 26.0312C86.724 25.7656 86.0729 25.3854 85.5312 24.8906C84.9948 24.3958 84.5729 23.8073 84.2656 23.125C83.9479 23.9115 83.4922 24.5938 82.8984 25.1719C82.3047 25.7448 81.5885 26.1771 80.75 26.4688L79.8281 25.0625C80.5885 24.8125 81.2318 24.4505 81.7578 23.9766C82.2839 23.5026 82.6797 22.9557 82.9453 22.3359C83.2109 21.7161 83.3438 21.0625 83.3438 20.375V19.0312H85.0938V20.2969ZM91.75 26.5781H90.0156V22.4219H87.2031V21H90.0156V18.2656H91.75V26.5781ZM86.9688 26.9531C87.9635 26.9531 88.8229 27.0599 89.5469 27.2734C90.276 27.487 90.8333 27.7995 91.2188 28.2109C91.6042 28.6172 91.7969 29.1042 91.7969 29.6719C91.7969 30.2396 91.6042 30.7266 91.2188 31.1328C90.8333 31.5391 90.2786 31.8464 89.5547 32.0547C88.8307 32.2682 87.9688 32.375 86.9688 32.375C85.974 32.375 85.1146 32.2682 84.3906 32.0547C83.6719 31.8464 83.1198 31.5391 82.7344 31.1328C82.3542 30.7266 82.1667 30.2396 82.1719 29.6719C82.1667 29.1042 82.3542 28.6172 82.7344 28.2109C83.1198 27.7995 83.6745 27.487 84.3984 27.2734C85.1224 27.0599 85.9792 26.9531 86.9688 26.9531ZM86.9688 28.2969C85.9792 28.2969 85.2188 28.4167 84.6875 28.6562C84.1562 28.8906 83.8906 29.2292 83.8906 29.6719C83.8906 30.1042 84.1562 30.4375 84.6875 30.6719C85.224 30.901 85.9844 31.0156 86.9688 31.0156C87.9531 31.0156 88.7135 30.8984 89.25 30.6641C89.7917 30.4297 90.0625 30.099 90.0625 29.6719C90.0625 29.2292 89.7943 28.8906 89.2578 28.6562C88.7214 28.4167 87.9583 28.2969 86.9688 28.2969ZM105.547 32.3906H103.797V18.2656H105.547V32.3906ZM101.328 19.7656C101.328 22.0104 100.82 23.9818 99.8047 25.6797C98.7891 27.3724 97.1042 28.776 94.75 29.8906L93.8438 28.5C95.6615 27.6354 97.0286 26.6016 97.9453 25.3984C98.8672 24.1901 99.4062 22.7708 99.5625 21.1406H94.5625V19.7656H101.328Z" fill="#0047FF"/>
<g filter="url(#filter0_d_147_6495)">
<path d="M8 13C6.49075 18.4 4.37781 31.36 8 40V13Z" fill="#0047FF"/>
</g>
<defs>
<filter id="filter0_d_147_6495" x="0" y="5" width="18" height="43" filterUnits="userSpaceOnUse" color-interpolation-filters="sRGB">
<feFlood flood-opacity="0" result="BackgroundImageFix"/>
<feColorMatrix in="SourceAlpha" type="matrix" values="0 0 0 0 0 0 0 0 0 0 0 0 0 0 0 0 0 0 127 0" result="hardAlpha"/>
<feOffset dx="2"/>
<feGaussianBlur stdDeviation="4"/>
<feComposite in2="hardAlpha" operator="out"/>
<feColorMatrix type="matrix" values="0 0 0 0 0 0 0 0 0 0.278431 0 0 0 0 1 0 0 0 1 0"/>
<feBlend mode="normal" in2="BackgroundImageFix" result="effect1_dropShadow_147_6495"/>
<feBlend mode="normal" in="SourceGraphic" in2="effect1_dropShadow_147_6495" result="shape"/>
</filter>
</defs>
</svg>
