<svg width="142" height="51" viewBox="0 0 142 51" fill="none" xmlns="http://www.w3.org/2000/svg">
<rect x="2" width="140" height="51" rx="16" fill="white"/>
<path d="M47.192 18.264V25.528H45.496V18.264H47.192ZM35.576 24.28C37.784 23.624 38.984 22.024 39.064 20.376H36.024V18.968H43.8V20.376H40.824C40.904 21.928 42.104 23.416 44.28 24.024L43.448 25.368C41.8 24.888 40.616 23.88 39.992 22.6C39.352 24.008 38.12 25.144 36.376 25.656L35.576 24.28ZM37.848 27.48V26.136H47.224V29.784H39.576V30.904H47.64V32.28H37.88V28.504H45.496V27.48H37.848ZM62.2041 25.336V26.712H56.7321V29.304H55.0041V26.712H49.2761V25.336H62.2041ZM50.8441 32.12V28.024H52.5721V30.712H60.7641V32.12H50.8441ZM50.9081 24.024V18.904H60.5401V24.024H50.9081ZM52.6041 22.648H58.8121V20.28H52.6041V22.648ZM68.1283 27.448C68.1443 28.632 68.6883 29.864 69.8883 30.632C71.1203 29.816 71.6962 28.536 71.7123 27.448V26.872H73.4083V27.448C73.3923 28.936 74.2723 30.312 76.1283 30.904L75.2643 32.184C73.9043 31.72 72.9923 30.808 72.4963 29.672C72.0483 30.792 71.2323 31.8 69.9523 32.312C68.6083 31.816 67.7603 30.856 67.3123 29.72C66.8003 30.808 65.9043 31.704 64.5763 32.184L63.7443 30.904C65.5523 30.264 66.4483 28.824 66.4643 27.448V26.872H68.1283V27.448ZM63.3923 22.392C63.3763 20.408 65.0082 19.032 67.2003 19.032C69.3603 19.032 70.9923 20.408 70.9763 22.392C70.9923 24.36 69.3603 25.736 67.2003 25.752C65.0082 25.736 63.3763 24.36 63.3923 22.392ZM65.0883 22.392C65.0723 23.544 65.9523 24.296 67.2003 24.28C68.4003 24.296 69.2803 23.544 69.2803 22.392C69.2803 21.24 68.4003 20.488 67.2003 20.504C65.9523 20.488 65.0723 21.24 65.0883 22.392ZM73.1523 26.296V18.296H74.8803V26.296H73.1523ZM80.8044 19.288C82.7244 19.304 84.1484 20.904 84.3884 23.48H87.0764V18.264H88.8044V32.408H87.0764V24.856H84.4044C84.2284 27.592 82.7884 29.288 80.8044 29.272C78.6924 29.288 77.1884 27.352 77.1884 24.28C77.1884 21.24 78.6924 19.304 80.8044 19.288ZM78.8524 24.28C78.8524 26.456 79.6524 27.72 80.8044 27.704C81.9884 27.72 82.7724 26.456 82.7884 24.28C82.7724 22.136 81.9884 20.856 80.8044 20.856C79.6524 20.856 78.8524 22.136 78.8524 24.28ZM103.689 29.24V30.68H90.7925V29.24H93.7685V25.688C92.6485 25.032 91.9605 24.024 91.9765 22.776C91.9605 20.52 94.1685 19.032 97.2245 19.032C100.249 19.032 102.473 20.52 102.473 22.776C102.473 24.008 101.801 25 100.713 25.656V29.24H103.689ZM93.6725 22.776C93.6565 24.216 95.0965 25.128 97.2245 25.144C99.3045 25.128 100.761 24.216 100.777 22.776C100.761 21.288 99.3045 20.408 97.2245 20.408C95.0965 20.408 93.6565 21.288 93.6725 22.776ZM95.4965 29.24H98.9525V26.312C98.4245 26.424 97.8325 26.488 97.2245 26.488C96.6165 26.488 96.0245 26.424 95.4965 26.312V29.24ZM107.533 19.672L107.341 27.672H105.581L105.389 19.672H107.533ZM105.229 29.912C105.229 29.256 105.789 28.712 106.445 28.696C107.101 28.712 107.661 29.256 107.661 29.912C107.661 30.584 107.101 31.128 106.445 31.128C105.789 31.128 105.229 30.584 105.229 29.912Z" fill="#B6BED4"/>
<path d="M2 13C0.490753 18.4 -1.62219 31.36 2 40V13Z" fill="#B6BED4"/>
</svg>
