<svg width="24" height="24" viewBox="0 0 24 24" fill="none" xmlns="http://www.w3.org/2000/svg">
<path d="M7 3L12 5L14.5 4L17.5 3.5L21 6C21.5 6.33333 22.3 8 21.5 12C20.7858 15.5711 16.1659 19.2751 13.0487 20.9771C12.4124 21.3245 11.6406 21.2305 11.0607 20.7955L8 18.5L5.5 16L4 14L2.5 9L3 5.5L7 3Z" fill="#0047FF" stroke="#0047FF"/>
<path d="M12 21.6501C11.78 21.6501 11.45 21.6301 11.14 21.5201C7.32 20.2101 1.25 15.5701 1.25 8.69012C1.25 5.19012 4.08 2.3501 7.56 2.3501C9.25 2.3501 10.83 3.01012 12 4.19012C13.17 3.01012 14.75 2.3501 16.44 2.3501C19.92 2.3501 22.75 5.19012 22.75 8.69012C22.75 9.90012 22.57 11.0901 22.21 12.2301C22.09 12.6201 21.66 12.8501 21.27 12.7201C20.87 12.6001 20.66 12.1702 20.78 11.7802C21.09 10.7902 21.25 9.75013 21.25 8.70013C21.25 6.03013 19.09 3.86011 16.44 3.86011C14.92 3.86011 13.51 4.5701 12.6 5.7901C12.32 6.1701 11.68 6.1701 11.4 5.7901C10.48 4.5601 9.08 3.86011 7.56 3.86011C4.91 3.86011 2.75 6.03013 2.75 8.70013C2.75 15.5401 9.32 19.3301 11.63 20.1201C11.69 20.1401 11.83 20.1701 12 20.1701C12.41 20.1701 12.75 20.5101 12.75 20.9201C12.75 21.3301 12.41 21.6501 12 21.6501Z" fill="#0047FF"/>
<path d="M14.1351 19.6996L14.1349 19.7007L13.9452 21.0488C13.8547 21.6608 14.0353 22.2727 14.4665 22.7038C14.8276 23.065 15.3182 23.2503 15.8201 23.2503C15.9181 23.2503 16.0111 23.2394 16.0802 23.2313C16.0927 23.2298 16.1044 23.2284 16.1153 23.2272L16.1225 23.2264L16.1297 23.2254L17.4797 23.0354L17.4808 23.0353C17.9417 22.9694 18.4499 22.7076 18.7736 22.3839L18.4308 22.0411L18.7736 22.3839L22.3136 18.8439L22.3136 18.8439L22.3173 18.8401C22.8376 18.3088 23.1727 17.7287 23.2376 17.0801L23.2378 17.0778C23.3158 16.2586 22.9663 15.5095 22.3136 14.8568C21.6609 14.2041 20.9118 13.8546 20.0926 13.9326L20.0913 13.9327C19.4341 13.9971 18.8623 14.321 18.3265 14.8568L14.7865 18.3968L15.1247 18.7349L14.7865 18.3968C14.46 18.7233 14.2004 19.2425 14.1351 19.6996ZM16.5302 20.6402L16.6064 20.1111L20.0936 16.6239L20.0937 16.624L20.1017 16.6156C20.1879 16.5253 20.2578 16.4686 20.307 16.437C20.309 16.4356 20.311 16.4344 20.3129 16.4332C20.322 16.4383 20.3327 16.4448 20.345 16.4529C20.4078 16.4942 20.4782 16.5556 20.5465 16.6239C20.6213 16.6987 20.6856 16.7725 20.7265 16.8357C20.7291 16.8397 20.7315 16.8436 20.7337 16.8471C20.7333 16.8479 20.7328 16.8486 20.7323 16.8493C20.6971 16.9029 20.6369 16.9763 20.5465 17.0667L20.9001 17.4203L20.5465 17.0668L17.0476 20.5657L16.5302 20.6402Z" fill="#0047FF" stroke="white"/>
<path d="M20.9201 19.2203C20.8501 19.2203 20.7801 19.2104 20.7201 19.1904C19.4001 18.8204 18.3501 17.7704 17.9801 16.4504C17.8701 16.0504 18.1001 15.6404 18.5001 15.5304C18.9001 15.4204 19.3101 15.6503 19.4301 16.0503C19.6601 16.8703 20.3101 17.5204 21.1301 17.7504C21.5301 17.8604 21.7601 18.2803 21.6501 18.6703C21.5501 19.0003 21.2501 19.2203 20.9201 19.2203Z" fill="#0047FF"/>
</svg>
