<svg width="24" height="24" viewBox="0 0 24 24" fill="none" xmlns="http://www.w3.org/2000/svg">
<path d="M11.97 22.7499C11.36 22.7499 10.73 22.6999 10.09 22.5899C5.68999 21.8399 2.09999 18.2399 1.36999 13.8199C0.789991 10.3099 1.87999 6.87991 4.36999 4.38991C6.85999 1.89991 10.29 0.819909 13.79 1.38991C18.2 2.11991 21.81 5.69991 22.56 10.0999C22.72 11.0699 22.76 12.0199 22.68 12.9199V12.9299C22.66 13.1599 22.62 13.3799 22.56 13.5999C22.49 13.8499 22.3 14.0399 22.06 14.1199C21.82 14.1999 21.55 14.1399 21.35 13.9799C20.41 13.1899 19.21 12.7499 17.97 12.7499C15.07 12.7499 12.72 15.1099 12.72 17.9999C12.72 19.2399 13.16 20.4399 13.95 21.3799C14.12 21.5799 14.17 21.8399 14.09 22.0899C14.01 22.3399 13.82 22.5199 13.57 22.5899C13.35 22.6499 13.13 22.6899 12.9 22.7099C12.6 22.7399 12.29 22.7499 11.97 22.7499ZM11.97 2.74991C9.51999 2.74991 7.19999 3.69991 5.43999 5.45991C3.29999 7.59991 2.35999 10.5599 2.85999 13.5799C3.48999 17.3699 6.55999 20.4699 10.35 21.1099C10.95 21.2099 11.52 21.2699 12.07 21.2499C11.53 20.2599 11.24 19.1399 11.24 17.9999C11.24 14.2799 14.27 11.2499 17.99 11.2499C19.13 11.2499 20.25 11.5399 21.24 12.0799C21.25 11.5299 21.2 10.9599 21.1 10.3599C20.46 6.57991 17.36 3.49991 13.57 2.87991C13.02 2.78991 12.49 2.74991 11.97 2.74991Z" fill="#0047FF"/>
<path d="M13.38 22.61C13.16 22.61 12.95 22.52 12.81 22.34C11.79 21.13 11.22 19.59 11.22 18C11.22 14.28 14.25 11.25 17.97 11.25C19.56 11.25 21.1 11.81 22.31 12.84C22.54 13.03 22.63 13.34 22.55 13.62C22.37 14.24 22.05 14.78 21.59 15.24L15.21 21.62C14.75 22.08 14.2 22.4 13.59 22.58C13.52 22.6 13.45 22.61 13.38 22.61ZM17.97 12.75C15.07 12.75 12.72 15.11 12.72 18C12.72 19.06 13.04 20.09 13.63 20.95C13.82 20.85 13.99 20.72 14.15 20.56L20.53 14.18C20.69 14.02 20.82 13.85 20.92 13.66C20.06 13.07 19.03 12.75 17.97 12.75Z" fill="#0047FF"/>
</svg>
