<svg width="17" height="17" viewBox="0 0 17 17" fill="none" xmlns="http://www.w3.org/2000/svg">
<path d="M8.26367 11.4492C7.75391 11.4492 7.28223 11.3232 6.84863 11.0713C6.4209 10.8193 6.08105 10.4795 5.8291 10.0518C5.57715 9.61816 5.45117 9.14648 5.45117 8.63672C5.45117 8.12695 5.57715 7.6582 5.8291 7.23047C6.08105 6.79688 6.4209 6.4541 6.84863 6.20215C7.28223 5.9502 7.75391 5.82422 8.26367 5.82422C8.77344 5.82422 9.24219 5.9502 9.66992 6.20215C10.1035 6.4541 10.4463 6.79688 10.6982 7.23047C10.9502 7.6582 11.0762 8.12695 11.0762 8.63672C11.0762 9.14648 10.9502 9.61816 10.6982 10.0518C10.4463 10.4795 10.1035 10.8193 9.66992 11.0713C9.24219 11.3232 8.77344 11.4492 8.26367 11.4492ZM7.5957 0.796875H8.93164V4.57617H7.5957V0.796875ZM10.6543 5.31445L13.3438 2.625L14.2754 3.55664L11.5859 6.24609L10.6543 5.31445ZM12.3066 7.96875H16.0859V9.30469H12.3066V7.96875ZM10.6543 11.959L11.5859 11.0273L14.2754 13.7168L13.3438 14.6484L10.6543 11.959ZM7.5957 12.6797H8.93164V16.459H7.5957V12.6797ZM2.25195 13.7168L4.94141 11.0273L5.87305 11.959L3.18359 14.6484L2.25195 13.7168ZM0.423828 7.96875H4.20312V9.30469H0.423828V7.96875ZM2.25195 3.55664L3.18359 2.625L5.87305 5.31445L4.94141 6.24609L2.25195 3.55664Z" fill="#121212"/>
</svg>
