<svg width="17" height="17" viewBox="0 0 17 17" fill="none" xmlns="http://www.w3.org/2000/svg">
<path d="M13.4583 2.83317H12.0416V2.12484C12.0416 1.93698 11.967 1.75681 11.8342 1.62397C11.7013 1.49113 11.5212 1.4165 11.3333 1.4165C11.1454 1.4165 10.9653 1.49113 10.8324 1.62397C10.6996 1.75681 10.625 1.93698 10.625 2.12484V2.83317H6.37496V2.12484C6.37496 1.93698 6.30033 1.75681 6.16749 1.62397C6.03466 1.49113 5.85449 1.4165 5.66663 1.4165C5.47876 1.4165 5.2986 1.49113 5.16576 1.62397C5.03292 1.75681 4.95829 1.93698 4.95829 2.12484V2.83317H3.54163C2.97804 2.83317 2.43754 3.05705 2.03902 3.45557C1.64051 3.85408 1.41663 4.39459 1.41663 4.95817V13.4582C1.41663 14.0218 1.64051 14.5623 2.03902 14.9608C2.43754 15.3593 2.97804 15.5832 3.54163 15.5832H13.4583C14.0219 15.5832 14.5624 15.3593 14.9609 14.9608C15.3594 14.5623 15.5833 14.0218 15.5833 13.4582V4.95817C15.5833 4.39459 15.3594 3.85408 14.9609 3.45557C14.5624 3.05705 14.0219 2.83317 13.4583 2.83317ZM14.1666 13.4582C14.1666 13.646 14.092 13.8262 13.9592 13.959C13.8263 14.0919 13.6462 14.1665 13.4583 14.1665H3.54163C3.35376 14.1665 3.1736 14.0919 3.04076 13.959C2.90792 13.8262 2.83329 13.646 2.83329 13.4582V8.49984H14.1666V13.4582ZM14.1666 7.08317H2.83329V4.95817C2.83329 4.77031 2.90792 4.59014 3.04076 4.4573C3.1736 4.32447 3.35376 4.24984 3.54163 4.24984H4.95829V4.95817C4.95829 5.14603 5.03292 5.3262 5.16576 5.45904C5.2986 5.59188 5.47876 5.6665 5.66663 5.6665C5.85449 5.6665 6.03466 5.59188 6.16749 5.45904C6.30033 5.3262 6.37496 5.14603 6.37496 4.95817V4.24984H10.625V4.95817C10.625 5.14603 10.6996 5.3262 10.8324 5.45904C10.9653 5.59188 11.1454 5.6665 11.3333 5.6665C11.5212 5.6665 11.7013 5.59188 11.8342 5.45904C11.967 5.3262 12.0416 5.14603 12.0416 4.95817V4.24984H13.4583C13.6462 4.24984 13.8263 4.32447 13.9592 4.4573C14.092 4.59014 14.1666 4.77031 14.1666 4.95817V7.08317Z" fill="#666B76"/>
</svg>
